# xmcd CD database file
#
# Track frame offsets:
#	150
#	13790
#	31722
#	44699
#	60209
#	73083
#	87591
#	99968
#	113918
#	129055
#
# Disc length: 1916 seconds
#
# Revision: 1
# Processed by: cddbd v1.5.2PL0 Copyright (c) Steve Scherf et al.
# Submitted via: CDex 1.51
#
DISCID=78077a0a
DTITLE=5 Minutos de Jazz - Disco 3
DYEAR=2006
DGENRE=Jazz
TTITLE0=BIX BEIDERBECKE - Jazz me Blues
TTITLE1=ART BLAKEY - Lou's Blues
TTITLE2=JOHN COLTRANE - Tin Tin Deo
TTITLE3=BENNY CARTER - Angel Eyes
TTITLE4=JELLY ROLL MORTON - Kansas City Stomp
TTITLE5=MCKINLEY COTTON PICKERS - Milenberg Joys
TTITLE6='FATS' WALLER - Handful of Keys
TTITLE7=CAB CALLOWAY - The Man From Harlem
TTITLE8=BENNIE MOTEN - Moten Swing
TTITLE9=COLEMAN HAWKINS - Body and Soul
EXTD=YEAR: 2006
EXTT0=
EXTT1=
EXTT2=
EXTT3=
EXTT4=
EXTT5=
EXTT6=
EXTT7=
EXTT8=
EXTT9=
PLAYORDER=
